{"title":"Inglourious Basterds-AC3-5,1-DVDRip[Eng]2009","uid":5201799,"size":1539657269,"categoryP":"video","categoryS":"movies","magnet":"?xt=urn:btih:e6b4e67753392c86e8226a0d74090954951068b0&amp;dn=Inglourious+Basterds-AC3-5%2C1-DVDRip%5BEng%5D2009&amp;tr=udp%3A%2F%2Ftracker.openbittorrent.com%3A80&amp;tr=udp%3A%2F%2Fopen.demonii.com%3A1337&amp;tr=udp%3A%2F%2Ftracker.coppersurfer.tk%3A6969&amp;tr=udp%3A%2F%2Fexodus.desync.com%3A6969","seeders":0,"leechers":1,"uploader":"FatFreddy31","files":-1,"time":1260205074,"description":" &lt;a href=&quot;http://www.imdb.com/title/tt0361748/&quot; rel=&quot;nofollow&quot; target=&quot;_NEW&quot;&gt;http://www.imdb.com/title/tt0361748/&lt;/a&gt;\n &lt;a href=&quot;\nhttp://www.inglouriousbasterds-movie.com/&quot; rel=&quot;nofollow&quot; target=&quot;_NEW&quot;&gt;\nhttp://www.inglouriousbasterds-movie.com/&lt;/a&gt;\n\nUser Rating:8.5/10 - 99,301 votes\nTop 250: #62 \n\nDrama,War\n\nDirector:Quentin Tarantino\n\nCast:Brad Pitt/MÃƒÂ©lanie Laurent/Christoph Waltz/Eli Roth, and others.\n\nPlot:\nIn Nazi-occupied France during World War II, a group of Jewish-American soldiers known as &quot;The Basterds&quot; are chosen specifically to spread fear throughout the Third Reich by scalping and brutally killing Nazis. The Basterds soon cross paths with a French-Jewish teenage girl who runs a movie theater in Paris which is targeted by the soldiers....\n\nInfo:\n\nCover included.\n\nGeneral\nComplete name                    : Inglourious Basterds-AC3-5,1-DVDRip[Eng]2009.avi\nFormat                           : AVI\nFormat/Info                      : Audio Video Interleave\nFile size                        : 1.43 GiB\nDuration                         : 2h 26mn\nOverall bit rate                 : 1 399 Kbps\nWriting application              : VirtualDubMod 1.5.4.1 (build 2178/release)\nWriting library                  : VirtualDubMod build 2178/release\n\nVideo\nID                               : 0\nFormat                           : MPEG-4 Visual\nFormat profile                   : Simple@L3\nFormat settings, BVOP            : No\nFormat settings, QPel            : No\nFormat settings, GMC             : No warppoints\nFormat settings, Matrix          : Default (H.263)\nCodec ID                         : XVID\nCodec ID/Hint                    : XviD\nDuration                         : 2h 26mn\nBit rate                         : 1 005 Kbps\nWidth                            : 640 pixels\nHeight                           : 272 pixels\nDisplay aspect ratio             : 2.35:1\nFrame rate                       : 25.000 fps\nResolution                       : 24 bits\nColorimetry                      : 4:2:0\nScan type                        : Progressive\nBits/(Pixel*Frame)               : 0.231\nStream size                      : 1.03 GiB (72%)\nWriting library                  : XviD 1.1.2 (UTC 2006-11-01)\n\nAudio\nID                               : 1\nFormat                           : AC-3\nFormat/Info                      : Audio Coding 3\nCodec ID                         : 2000\nDuration                         : 2h 26mn\nBit rate mode                    : Constant\nBit rate                         : 384 Kbps\nChannel(s)                       : 6 channels\nChannel positions                : Front: L C R, Surround: L R, LFE\nSampling rate                    : 48.0 KHz\nStream size                      : 403 MiB (27%)\nAlignment                        : Split accross interleaves\nInterleave, duration             : 40 ms (1.00 video frame)\nInterleave, preload duration     : 500 ms\n\nEnjoy....","torrent":{"xt":"urn:btih:e6b4e67753392c86e8226a0d74090954951068b0","amp;dn":"Inglourious+Basterds-AC3-5%2C1-DVDRip%5BEng%5D2009","amp;tr":["udp%3A%2F%2Ftracker.openbittorrent.com%3A80","udp%3A%2F%2Fopen.demonii.com%3A1337","udp%3A%2F%2Ftracker.coppersurfer.tk%3A6969","udp%3A%2F%2Fexodus.desync.com%3A6969"],"infoHash":"e6b4e67753392c86e8226a0d74090954951068b0","infoHashBuffer":{"type":"Buffer","data":[230,180,230,119,83,57,44,134,232,34,106,13,116,9,9,84,149,16,104,176]},"announce":[],"urlList":[]}}